<svg width="309" height="258" viewBox="0 0 309 258" fill="none" xmlns="http://www.w3.org/2000/svg">
<g filter="url(#filter0_d_1759_4)">
<rect x="2" y="2" width="282" height="246" rx="40" fill="url(#paint0_linear_1759_4)"/>
<rect x="2.5" y="2.5" width="281" height="245" rx="39.5" stroke="url(#paint1_linear_1759_4)"/>
</g>
<path d="M54.5181 64V50.1818H63.087V51.9766H56.603V56.1868H62.473V57.9748H56.603V64H54.5181ZM65.3591 64V53.6364H67.309V55.2827H67.417C67.6059 54.7249 67.9388 54.2863 68.4156 53.967C68.8969 53.6431 69.4411 53.4812 70.0484 53.4812C70.1743 53.4812 70.3228 53.4857 70.4937 53.4947C70.6691 53.5037 70.8063 53.5149 70.9053 53.5284V55.4581C70.8243 55.4356 70.6804 55.4109 70.4735 55.3839C70.2665 55.3524 70.0596 55.3366 69.8527 55.3366C69.3759 55.3366 68.9508 55.4379 68.5775 55.6403C68.2087 55.8382 67.9163 56.1148 67.7004 56.4702C67.4845 56.821 67.3765 57.2214 67.3765 57.6712V64H65.3591ZM76.7466 64.2092C75.7256 64.2092 74.8462 63.991 74.1085 63.5547C73.3753 63.1139 72.8085 62.4954 72.4082 61.6992C72.0124 60.8986 71.8145 59.9607 71.8145 58.8857C71.8145 57.8241 72.0124 56.8885 72.4082 56.0788C72.8085 55.2692 73.3663 54.6372 74.0815 54.1829C74.8012 53.7286 75.6423 53.5014 76.6049 53.5014C77.1897 53.5014 77.7565 53.5981 78.3052 53.7915C78.854 53.985 79.3465 54.2886 79.7828 54.7024C80.2192 55.1162 80.5633 55.6538 80.8152 56.315C81.0671 56.9717 81.193 57.7701 81.193 58.7102V59.4254H72.9547V57.9141H79.2161C79.2161 57.3833 79.1081 56.9132 78.8922 56.5039C78.6763 56.0901 78.3727 55.764 77.9814 55.5256C77.5945 55.2872 77.1402 55.168 76.6184 55.168C76.0517 55.168 75.5569 55.3074 75.1341 55.5863C74.7157 55.8607 74.3919 56.2205 74.1625 56.6658C73.9376 57.1067 73.8251 57.5857 73.8251 58.103V59.2837C73.8251 59.9764 73.9466 60.5657 74.1895 61.0515C74.4368 61.5373 74.781 61.9084 75.2218 62.1648C75.6626 62.4167 76.1776 62.5426 76.7669 62.5426C77.1492 62.5426 77.4978 62.4886 77.8127 62.3807C78.1275 62.2682 78.3997 62.1018 78.6291 61.8814C78.8585 61.661 79.0339 61.3888 79.1554 61.065L81.0648 61.4091C80.9119 61.9714 80.6375 62.4639 80.2417 62.8867C79.8503 63.305 79.3578 63.6312 78.764 63.8651C78.1748 64.0945 77.5023 64.2092 76.7466 64.2092ZM87.898 64.2092C86.8769 64.2092 85.9975 63.991 85.2599 63.5547C84.5267 63.1139 83.9599 62.4954 83.5596 61.6992C83.1637 60.8986 82.9658 59.9607 82.9658 58.8857C82.9658 57.8241 83.1637 56.8885 83.5596 56.0788C83.9599 55.2692 84.5177 54.6372 85.2329 54.1829C85.9526 53.7286 86.7937 53.5014 87.7563 53.5014C88.3411 53.5014 88.9078 53.5981 89.4566 53.7915C90.0054 53.985 90.4979 54.2886 90.9342 54.7024C91.3705 55.1162 91.7146 55.6538 91.9665 56.315C92.2184 56.9717 92.3444 57.7701 92.3444 58.7102V59.4254H84.1061V57.9141H90.3675C90.3675 57.3833 90.2595 56.9132 90.0436 56.5039C89.8277 56.0901 89.5241 55.764 89.1327 55.5256C88.7459 55.2872 88.2916 55.168 87.7698 55.168C87.203 55.168 86.7082 55.3074 86.2854 55.5863C85.8671 55.8607 85.5432 56.2205 85.3138 56.6658C85.0889 57.1067 84.9765 57.5857 84.9765 58.103V59.2837C84.9765 59.9764 85.0979 60.5657 85.3408 61.0515C85.5882 61.5373 85.9323 61.9084 86.3731 62.1648C86.814 62.4167 87.329 62.5426 87.9182 62.5426C88.3006 62.5426 88.6492 62.4886 88.964 62.3807C89.2789 62.2682 89.551 62.1018 89.7805 61.8814C90.0099 61.661 90.1853 61.3888 90.3067 61.065L92.2162 61.4091C92.0632 61.9714 91.7889 62.4639 91.393 62.8867C91.0017 63.305 90.5091 63.6312 89.9154 63.8651C89.3261 64.0945 88.6537 64.2092 87.898 64.2092ZM106.176 59.7021V53.6364H108.2V64H106.217V62.2053H106.109C105.87 62.7585 105.488 63.2196 104.962 63.5884C104.44 63.9528 103.79 64.1349 103.012 64.1349C102.346 64.1349 101.757 63.9888 101.244 63.6964C100.736 63.3995 100.335 62.9609 100.043 62.3807C99.755 61.8004 99.6111 61.083 99.6111 60.2283V53.6364H101.628V59.9854C101.628 60.6916 101.824 61.2539 102.215 61.6722C102.607 62.0906 103.115 62.2997 103.74 62.2997C104.118 62.2997 104.494 62.2053 104.867 62.0163C105.245 61.8274 105.558 61.5418 105.805 61.1594C106.057 60.7771 106.181 60.2913 106.176 59.7021ZM118.677 56.1665L116.848 56.4904C116.772 56.2565 116.65 56.0339 116.484 55.8224C116.322 55.611 116.102 55.4379 115.823 55.3029C115.544 55.168 115.195 55.1005 114.777 55.1005C114.206 55.1005 113.729 55.2287 113.347 55.4851C112.964 55.737 112.773 56.0631 112.773 56.4634C112.773 56.8098 112.901 57.0887 113.158 57.3001C113.414 57.5115 113.828 57.6847 114.399 57.8196L116.045 58.1974C116.999 58.4179 117.71 58.7575 118.178 59.2163C118.645 59.6751 118.879 60.2711 118.879 61.0043C118.879 61.625 118.699 62.1783 118.339 62.6641C117.984 63.1454 117.487 63.5232 116.848 63.7976C116.214 64.072 115.479 64.2092 114.642 64.2092C113.482 64.2092 112.535 63.9618 111.801 63.467C111.068 62.9677 110.618 62.2592 110.452 61.3416L112.402 61.0447C112.523 61.553 112.773 61.9376 113.151 62.1985C113.529 62.4549 114.021 62.5831 114.629 62.5831C115.29 62.5831 115.818 62.4459 116.214 62.1715C116.61 61.8926 116.808 61.553 116.808 61.1527C116.808 60.8288 116.686 60.5567 116.444 60.3363C116.205 60.1159 115.839 59.9495 115.344 59.837L113.589 59.4524C112.622 59.232 111.907 58.8812 111.444 58.3999C110.985 57.9186 110.756 57.3091 110.756 56.5714C110.756 55.9596 110.927 55.4244 111.268 54.9656C111.61 54.5067 112.083 54.1491 112.685 53.8928C113.288 53.6319 113.979 53.5014 114.757 53.5014C115.877 53.5014 116.758 53.7443 117.402 54.2301C118.045 54.7114 118.47 55.3569 118.677 56.1665ZM125.564 64.2092C124.543 64.2092 123.664 63.991 122.926 63.5547C122.193 63.1139 121.626 62.4954 121.226 61.6992C120.83 60.8986 120.632 59.9607 120.632 58.8857C120.632 57.8241 120.83 56.8885 121.226 56.0788C121.626 55.2692 122.184 54.6372 122.899 54.1829C123.619 53.7286 124.46 53.5014 125.422 53.5014C126.007 53.5014 126.574 53.5981 127.123 53.7915C127.671 53.985 128.164 54.2886 128.6 54.7024C129.037 55.1162 129.381 55.6538 129.633 56.315C129.884 56.9717 130.01 57.7701 130.01 58.7102V59.4254H121.772V57.9141H128.033C128.033 57.3833 127.926 56.9132 127.71 56.5039C127.494 56.0901 127.19 55.764 126.799 55.5256C126.412 55.2872 125.958 55.168 125.436 55.168C124.869 55.168 124.374 55.3074 123.951 55.5863C123.533 55.8607 123.209 56.2205 122.98 56.6658C122.755 57.1067 122.642 57.5857 122.642 58.103V59.2837C122.642 59.9764 122.764 60.5657 123.007 61.0515C123.254 61.5373 123.598 61.9084 124.039 62.1648C124.48 62.4167 124.995 62.5426 125.584 62.5426C125.967 62.5426 126.315 62.4886 126.63 62.3807C126.945 62.2682 127.217 62.1018 127.446 61.8814C127.676 61.661 127.851 61.3888 127.973 61.065L129.882 61.4091C129.729 61.9714 129.455 62.4639 129.059 62.8867C128.668 63.305 128.175 63.6312 127.581 63.8651C126.992 64.0945 126.32 64.2092 125.564 64.2092ZM142.209 53.6364V55.2557H136.353V53.6364H142.209ZM137.959 64V52.4354C137.959 51.7876 138.1 51.2501 138.384 50.8228C138.667 50.391 139.043 50.0694 139.51 49.858C139.978 49.642 140.486 49.5341 141.035 49.5341C141.44 49.5341 141.786 49.5678 142.074 49.6353C142.362 49.6983 142.576 49.7567 142.715 49.8107L142.243 51.4435C142.149 51.4165 142.027 51.3851 141.879 51.3491C141.73 51.3086 141.55 51.2884 141.339 51.2884C140.849 51.2884 140.498 51.4098 140.286 51.6527C140.079 51.8956 139.976 52.2464 139.976 52.7053V64H137.959ZM148.248 64.2092C147.276 64.2092 146.428 63.9865 145.704 63.5412C144.98 63.0959 144.418 62.4729 144.017 61.6722C143.617 60.8716 143.417 59.936 143.417 58.8654C143.417 57.7904 143.617 56.8503 144.017 56.0451C144.418 55.2399 144.98 54.6147 145.704 54.1694C146.428 53.7241 147.276 53.5014 148.248 53.5014C149.22 53.5014 150.067 53.7241 150.792 54.1694C151.516 54.6147 152.078 55.2399 152.478 56.0451C152.879 56.8503 153.079 57.7904 153.079 58.8654C153.079 59.936 152.879 60.8716 152.478 61.6722C152.078 62.4729 151.516 63.0959 150.792 63.5412C150.067 63.9865 149.22 64.2092 148.248 64.2092ZM148.255 62.5156C148.884 62.5156 149.406 62.3492 149.82 62.0163C150.234 61.6835 150.54 61.2404 150.738 60.6871C150.94 60.1339 151.041 59.5244 151.041 58.8587C151.041 58.1974 150.94 57.5902 150.738 57.0369C150.54 56.4792 150.234 56.0316 149.82 55.6942C149.406 55.3569 148.884 55.1882 148.255 55.1882C147.62 55.1882 147.094 55.3569 146.676 55.6942C146.262 56.0316 145.954 56.4792 145.752 57.0369C145.554 57.5902 145.455 58.1974 145.455 58.8587C145.455 59.5244 145.554 60.1339 145.752 60.6871C145.954 61.2404 146.262 61.6835 146.676 62.0163C147.094 62.3492 147.62 62.5156 148.255 62.5156ZM155.331 64V53.6364H157.281V55.2827H157.389C157.578 54.7249 157.91 54.2863 158.387 53.967C158.869 53.6431 159.413 53.4812 160.02 53.4812C160.146 53.4812 160.294 53.4857 160.465 53.4947C160.641 53.5037 160.778 53.5149 160.877 53.5284V55.4581C160.796 55.4356 160.652 55.4109 160.445 55.3839C160.238 55.3524 160.031 55.3366 159.824 55.3366C159.348 55.3366 158.923 55.4379 158.549 55.6403C158.18 55.8382 157.888 56.1148 157.672 56.4702C157.456 56.821 157.348 57.2214 157.348 57.6712V64H155.331ZM166.718 64.2092C165.697 64.2092 164.818 63.991 164.08 63.5547C163.347 63.1139 162.78 62.4954 162.38 61.6992C161.984 60.8986 161.786 59.9607 161.786 58.8857C161.786 57.8241 161.984 56.8885 162.38 56.0788C162.78 55.2692 163.338 54.6372 164.053 54.1829C164.773 53.7286 165.614 53.5014 166.577 53.5014C167.161 53.5014 167.728 53.5981 168.277 53.7915C168.826 53.985 169.318 54.2886 169.755 54.7024C170.191 55.1162 170.535 55.6538 170.787 56.315C171.039 56.9717 171.165 57.7701 171.165 58.7102V59.4254H162.926V57.9141H169.188C169.188 57.3833 169.08 56.9132 168.864 56.5039C168.648 56.0901 168.344 55.764 167.953 55.5256C167.566 55.2872 167.112 55.168 166.59 55.168C166.023 55.168 165.529 55.3074 165.106 55.5863C164.687 55.8607 164.364 56.2205 164.134 56.6658C163.909 57.1067 163.797 57.5857 163.797 58.103V59.2837C163.797 59.9764 163.918 60.5657 164.161 61.0515C164.409 61.5373 164.753 61.9084 165.193 62.1648C165.634 62.4167 166.149 62.5426 166.739 62.5426C167.121 62.5426 167.469 62.4886 167.784 62.3807C168.099 62.2682 168.371 62.1018 168.601 61.8814C168.83 61.661 169.006 61.3888 169.127 61.065L171.036 61.4091C170.884 61.9714 170.609 62.4639 170.213 62.8867C169.822 63.305 169.329 63.6312 168.736 63.8651C168.146 64.0945 167.474 64.2092 166.718 64.2092ZM181.972 53.6364L178.214 64H176.055L172.29 53.6364H174.456L177.08 61.6115H177.188L179.806 53.6364H181.972ZM187.982 64.2092C186.961 64.2092 186.082 63.991 185.344 63.5547C184.611 63.1139 184.044 62.4954 183.644 61.6992C183.248 60.8986 183.05 59.9607 183.05 58.8857C183.05 57.8241 183.248 56.8885 183.644 56.0788C184.044 55.2692 184.602 54.6372 185.317 54.1829C186.037 53.7286 186.878 53.5014 187.84 53.5014C188.425 53.5014 188.992 53.5981 189.541 53.7915C190.089 53.985 190.582 54.2886 191.018 54.7024C191.455 55.1162 191.799 55.6538 192.051 56.315C192.302 56.9717 192.428 57.7701 192.428 58.7102V59.4254H184.19V57.9141H190.451C190.451 57.3833 190.343 56.9132 190.128 56.5039C189.912 56.0901 189.608 55.764 189.217 55.5256C188.83 55.2872 188.376 55.168 187.854 55.168C187.287 55.168 186.792 55.3074 186.369 55.5863C185.951 55.8607 185.627 56.2205 185.398 56.6658C185.173 57.1067 185.06 57.5857 185.06 58.103V59.2837C185.06 59.9764 185.182 60.5657 185.425 61.0515C185.672 61.5373 186.016 61.9084 186.457 62.1648C186.898 62.4167 187.413 62.5426 188.002 62.5426C188.385 62.5426 188.733 62.4886 189.048 62.3807C189.363 62.2682 189.635 62.1018 189.864 61.8814C190.094 61.661 190.269 61.3888 190.391 61.065L192.3 61.4091C192.147 61.9714 191.873 62.4639 191.477 62.8867C191.086 63.305 190.593 63.6312 189.999 63.8651C189.41 64.0945 188.738 64.2092 187.982 64.2092ZM194.667 64V53.6364H196.617V55.2827H196.725C196.914 54.7249 197.246 54.2863 197.723 53.967C198.204 53.6431 198.749 53.4812 199.356 53.4812C199.482 53.4812 199.63 53.4857 199.801 53.4947C199.977 53.5037 200.114 53.5149 200.213 53.5284V55.4581C200.132 55.4356 199.988 55.4109 199.781 55.3839C199.574 55.3524 199.367 55.3366 199.16 55.3366C198.684 55.3366 198.258 55.4379 197.885 55.6403C197.516 55.8382 197.224 56.1148 197.008 56.4702C196.792 56.821 196.684 57.2214 196.684 57.6712V64H194.667Z" fill="white"/>
<circle cx="36" cy="58" r="11.5" stroke="#F1F2F9"/>
<path d="M29.25 59.05L33.3145 63.25L42.75 53.5" stroke="#F1F2F9" stroke-width="2" stroke-linecap="round"/>
<path d="M65.6712 140.182V154H63.755L56.7312 143.866H56.603V154H54.5181V140.182H56.4478L63.4783 150.33H63.6065V140.182H65.6712ZM72.9159 154.209C71.9443 154.209 71.0964 153.987 70.3722 153.541C69.6481 153.096 69.0858 152.473 68.6855 151.672C68.2851 150.872 68.085 149.936 68.085 148.865C68.085 147.79 68.2851 146.85 68.6855 146.045C69.0858 145.24 69.6481 144.615 70.3722 144.169C71.0964 143.724 71.9443 143.501 72.9159 143.501C73.8875 143.501 74.7354 143.724 75.4596 144.169C76.1838 144.615 76.7461 145.24 77.1464 146.045C77.5467 146.85 77.7469 147.79 77.7469 148.865C77.7469 149.936 77.5467 150.872 77.1464 151.672C76.7461 152.473 76.1838 153.096 75.4596 153.541C74.7354 153.987 73.8875 154.209 72.9159 154.209ZM72.9227 152.516C73.5524 152.516 74.0742 152.349 74.488 152.016C74.9018 151.683 75.2077 151.24 75.4056 150.687C75.608 150.134 75.7093 149.524 75.7093 148.859C75.7093 148.197 75.608 147.59 75.4056 147.037C75.2077 146.479 74.9018 146.032 74.488 145.694C74.0742 145.357 73.5524 145.188 72.9227 145.188C72.2884 145.188 71.7622 145.357 71.3438 145.694C70.93 146.032 70.6219 146.479 70.4195 147.037C70.2216 147.59 70.1226 148.197 70.1226 148.859C70.1226 149.524 70.2216 150.134 70.4195 150.687C70.6219 151.24 70.93 151.683 71.3438 152.016C71.7622 152.349 72.2884 152.516 72.9227 152.516ZM89.3925 154.209C88.3894 154.209 87.5258 153.982 86.8016 153.528C86.0819 153.069 85.5286 152.437 85.1418 151.632C84.7549 150.827 84.5615 149.904 84.5615 148.865C84.5615 147.813 84.7594 146.884 85.1553 146.079C85.5511 145.269 86.1089 144.637 86.8286 144.183C87.5483 143.729 88.3962 143.501 89.3722 143.501C90.1594 143.501 90.8611 143.648 91.4774 143.94C92.0936 144.228 92.5906 144.633 92.9685 145.154C93.3508 145.676 93.578 146.286 93.6499 146.983H91.6865C91.5786 146.497 91.3312 146.079 90.9443 145.728C90.562 145.377 90.0492 145.202 89.406 145.202C88.8437 145.202 88.3512 145.35 87.9284 145.647C87.51 145.939 87.1839 146.358 86.95 146.902C86.7161 147.442 86.5992 148.08 86.5992 148.818C86.5992 149.574 86.7139 150.226 86.9433 150.775C87.1727 151.324 87.4965 151.749 87.9149 152.05C88.3377 152.351 88.8347 152.502 89.406 152.502C89.7883 152.502 90.1347 152.432 90.445 152.293C90.7599 152.149 91.0231 151.944 91.2345 151.679C91.4504 151.414 91.6011 151.094 91.6865 150.721H93.6499C93.578 151.391 93.3598 151.989 92.9955 152.516C92.6311 153.042 92.1431 153.456 91.5313 153.757C90.9241 154.058 90.2111 154.209 89.3925 154.209ZM95.8074 154V143.636H97.7573V145.283H97.8652C98.0542 144.725 98.387 144.286 98.8638 143.967C99.3451 143.643 99.8894 143.481 100.497 143.481C100.623 143.481 100.771 143.486 100.942 143.495C101.117 143.504 101.255 143.515 101.354 143.528V145.458C101.273 145.436 101.129 145.411 100.922 145.384C100.715 145.352 100.508 145.337 100.301 145.337C99.8242 145.337 99.3991 145.438 99.0257 145.64C98.6569 145.838 98.3645 146.115 98.1486 146.47C97.9327 146.821 97.8248 147.221 97.8248 147.671V154H95.8074ZM107.195 154.209C106.174 154.209 105.294 153.991 104.557 153.555C103.824 153.114 103.257 152.495 102.856 151.699C102.461 150.899 102.263 149.961 102.263 148.886C102.263 147.824 102.461 146.888 102.856 146.079C103.257 145.269 103.815 144.637 104.53 144.183C105.249 143.729 106.091 143.501 107.053 143.501C107.638 143.501 108.205 143.598 108.753 143.792C109.302 143.985 109.795 144.289 110.231 144.702C110.667 145.116 111.012 145.654 111.263 146.315C111.515 146.972 111.641 147.77 111.641 148.71V149.425H103.403V147.914H109.664C109.664 147.383 109.556 146.913 109.34 146.504C109.125 146.09 108.821 145.764 108.43 145.526C108.043 145.287 107.588 145.168 107.067 145.168C106.5 145.168 106.005 145.307 105.582 145.586C105.164 145.861 104.84 146.221 104.611 146.666C104.386 147.107 104.273 147.586 104.273 148.103V149.284C104.273 149.976 104.395 150.566 104.638 151.051C104.885 151.537 105.229 151.908 105.67 152.165C106.111 152.417 106.626 152.543 107.215 152.543C107.597 152.543 107.946 152.489 108.261 152.381C108.576 152.268 108.848 152.102 109.077 151.881C109.307 151.661 109.482 151.389 109.604 151.065L111.513 151.409C111.36 151.971 111.086 152.464 110.69 152.887C110.299 153.305 109.806 153.631 109.212 153.865C108.623 154.094 107.951 154.209 107.195 154.209ZM117.759 154.202C116.923 154.202 116.176 153.989 115.519 153.561C114.867 153.13 114.354 152.516 113.981 151.719C113.612 150.919 113.428 149.958 113.428 148.838C113.428 147.718 113.614 146.76 113.988 145.964C114.365 145.168 114.883 144.558 115.539 144.136C116.196 143.713 116.941 143.501 117.773 143.501C118.416 143.501 118.933 143.609 119.325 143.825C119.72 144.037 120.026 144.284 120.242 144.567C120.463 144.851 120.634 145.1 120.755 145.316H120.876V140.182H122.894V154H120.924V152.387H120.755C120.634 152.608 120.458 152.86 120.229 153.143C120.004 153.426 119.693 153.674 119.298 153.885C118.902 154.097 118.389 154.202 117.759 154.202ZM118.205 152.482C118.785 152.482 119.275 152.329 119.675 152.023C120.08 151.713 120.386 151.283 120.593 150.734C120.804 150.186 120.91 149.547 120.91 148.818C120.91 148.098 120.807 147.469 120.6 146.929C120.393 146.389 120.089 145.969 119.689 145.667C119.289 145.366 118.794 145.215 118.205 145.215C117.597 145.215 117.091 145.373 116.686 145.688C116.282 146.002 115.976 146.432 115.769 146.976C115.566 147.52 115.465 148.134 115.465 148.818C115.465 149.511 115.569 150.134 115.776 150.687C115.982 151.24 116.288 151.679 116.693 152.003C117.103 152.322 117.606 152.482 118.205 152.482ZM125.773 154V143.636H127.791V154H125.773ZM126.792 142.037C126.441 142.037 126.14 141.92 125.888 141.686C125.64 141.448 125.517 141.165 125.517 140.836C125.517 140.503 125.64 140.22 125.888 139.986C126.14 139.748 126.441 139.629 126.792 139.629C127.143 139.629 127.442 139.748 127.689 139.986C127.941 140.22 128.067 140.503 128.067 140.836C128.067 141.165 127.941 141.448 127.689 141.686C127.442 141.92 127.143 142.037 126.792 142.037ZM135.342 143.636V145.256H129.681V143.636H135.342ZM131.2 141.153H133.217V150.957C133.217 151.348 133.275 151.643 133.392 151.841C133.509 152.034 133.66 152.167 133.844 152.239C134.033 152.306 134.238 152.34 134.458 152.34C134.62 152.34 134.762 152.329 134.884 152.306C135.005 152.284 135.099 152.266 135.167 152.252L135.531 153.919C135.414 153.964 135.248 154.009 135.032 154.054C134.816 154.103 134.546 154.13 134.222 154.135C133.692 154.144 133.197 154.049 132.738 153.852C132.279 153.654 131.908 153.348 131.625 152.934C131.341 152.52 131.2 152.001 131.2 151.375V141.153ZM146.968 154.209C145.965 154.209 145.101 153.982 144.377 153.528C143.657 153.069 143.104 152.437 142.717 151.632C142.33 150.827 142.137 149.904 142.137 148.865C142.137 147.813 142.335 146.884 142.73 146.079C143.126 145.269 143.684 144.637 144.404 144.183C145.123 143.729 145.971 143.501 146.947 143.501C147.735 143.501 148.436 143.648 149.053 143.94C149.669 144.228 150.166 144.633 150.544 145.154C150.926 145.676 151.153 146.286 151.225 146.983H149.262C149.154 146.497 148.906 146.079 148.52 145.728C148.137 145.377 147.624 145.202 146.981 145.202C146.419 145.202 145.926 145.35 145.504 145.647C145.085 145.939 144.759 146.358 144.525 146.902C144.291 147.442 144.174 148.08 144.174 148.818C144.174 149.574 144.289 150.226 144.518 150.775C144.748 151.324 145.072 151.749 145.49 152.05C145.913 152.351 146.41 152.502 146.981 152.502C147.364 152.502 147.71 152.432 148.02 152.293C148.335 152.149 148.598 151.944 148.81 151.679C149.026 151.414 149.176 151.094 149.262 150.721H151.225C151.153 151.391 150.935 151.989 150.571 152.516C150.206 153.042 149.718 153.456 149.107 153.757C148.499 154.058 147.786 154.209 146.968 154.209ZM156.399 154.229C155.742 154.229 155.148 154.108 154.617 153.865C154.086 153.618 153.666 153.26 153.356 152.792C153.05 152.324 152.897 151.751 152.897 151.072C152.897 150.487 153.009 150.006 153.234 149.628C153.459 149.25 153.763 148.951 154.145 148.73C154.527 148.51 154.955 148.344 155.427 148.231C155.899 148.119 156.381 148.033 156.871 147.975C157.492 147.903 157.995 147.844 158.382 147.799C158.769 147.75 159.05 147.671 159.226 147.563C159.401 147.455 159.489 147.28 159.489 147.037V146.99C159.489 146.4 159.322 145.944 158.989 145.62C158.661 145.296 158.171 145.134 157.519 145.134C156.839 145.134 156.304 145.285 155.913 145.586C155.526 145.883 155.258 146.214 155.11 146.578L153.214 146.146C153.439 145.517 153.767 145.008 154.199 144.621C154.635 144.23 155.137 143.947 155.704 143.771C156.27 143.591 156.866 143.501 157.492 143.501C157.905 143.501 158.344 143.551 158.807 143.65C159.275 143.744 159.711 143.92 160.116 144.176C160.526 144.433 160.861 144.799 161.122 145.276C161.382 145.748 161.513 146.362 161.513 147.118V154H159.543V152.583H159.462C159.331 152.844 159.136 153.1 158.875 153.352C158.614 153.604 158.279 153.813 157.869 153.98C157.46 154.146 156.97 154.229 156.399 154.229ZM156.837 152.61C157.395 152.61 157.872 152.5 158.267 152.279C158.668 152.059 158.971 151.771 159.178 151.416C159.39 151.056 159.495 150.671 159.495 150.262V148.926C159.424 148.998 159.284 149.066 159.077 149.129C158.875 149.187 158.643 149.239 158.382 149.284C158.121 149.324 157.867 149.362 157.62 149.398C157.372 149.43 157.165 149.457 156.999 149.479C156.608 149.529 156.25 149.612 155.926 149.729C155.607 149.846 155.35 150.015 155.157 150.235C154.968 150.451 154.874 150.739 154.874 151.099C154.874 151.598 155.058 151.976 155.427 152.232C155.796 152.484 156.266 152.61 156.837 152.61ZM164.2 154V143.636H166.15V145.283H166.258C166.447 144.725 166.78 144.286 167.256 143.967C167.738 143.643 168.282 143.481 168.889 143.481C169.015 143.481 169.164 143.486 169.335 143.495C169.51 143.504 169.647 143.515 169.746 143.528V145.458C169.665 145.436 169.521 145.411 169.314 145.384C169.107 145.352 168.9 145.337 168.694 145.337C168.217 145.337 167.792 145.438 167.418 145.64C167.049 145.838 166.757 146.115 166.541 146.47C166.325 146.821 166.217 147.221 166.217 147.671V154H164.2ZM175 154.202C174.164 154.202 173.417 153.989 172.76 153.561C172.108 153.13 171.595 152.516 171.222 151.719C170.853 150.919 170.669 149.958 170.669 148.838C170.669 147.718 170.855 146.76 171.229 145.964C171.607 145.168 172.124 144.558 172.781 144.136C173.437 143.713 174.182 143.501 175.014 143.501C175.657 143.501 176.174 143.609 176.566 143.825C176.962 144.037 177.267 144.284 177.483 144.567C177.704 144.851 177.875 145.1 177.996 145.316H178.118V140.182H180.135V154H178.165V152.387H177.996C177.875 152.608 177.699 152.86 177.47 153.143C177.245 153.426 176.935 153.674 176.539 153.885C176.143 154.097 175.63 154.202 175 154.202ZM175.446 152.482C176.026 152.482 176.516 152.329 176.917 152.023C177.321 151.713 177.627 151.283 177.834 150.734C178.046 150.186 178.151 149.547 178.151 148.818C178.151 148.098 178.048 147.469 177.841 146.929C177.634 146.389 177.33 145.969 176.93 145.667C176.53 145.366 176.035 145.215 175.446 145.215C174.839 145.215 174.332 145.373 173.928 145.688C173.523 146.002 173.217 146.432 173.01 146.976C172.808 147.52 172.706 148.134 172.706 148.818C172.706 149.511 172.81 150.134 173.017 150.687C173.224 151.24 173.53 151.679 173.934 152.003C174.344 152.322 174.848 152.482 175.446 152.482ZM188.043 154V143.636H189.993V145.283H190.101C190.29 144.725 190.622 144.286 191.099 143.967C191.58 143.643 192.125 143.481 192.732 143.481C192.858 143.481 193.006 143.486 193.177 143.495C193.353 143.504 193.49 143.515 193.589 143.528V145.458C193.508 145.436 193.364 145.411 193.157 145.384C192.95 145.352 192.743 145.337 192.536 145.337C192.06 145.337 191.634 145.438 191.261 145.64C190.892 145.838 190.6 146.115 190.384 146.47C190.168 146.821 190.06 147.221 190.06 147.671V154H188.043ZM199.43 154.209C198.409 154.209 197.53 153.991 196.792 153.555C196.059 153.114 195.492 152.495 195.092 151.699C194.696 150.899 194.498 149.961 194.498 148.886C194.498 147.824 194.696 146.888 195.092 146.079C195.492 145.269 196.05 144.637 196.765 144.183C197.485 143.729 198.326 143.501 199.289 143.501C199.873 143.501 200.44 143.598 200.989 143.792C201.538 143.985 202.03 144.289 202.466 144.702C202.903 145.116 203.247 145.654 203.499 146.315C203.751 146.972 203.877 147.77 203.877 148.71V149.425H195.638V147.914H201.9C201.9 147.383 201.792 146.913 201.576 146.504C201.36 146.09 201.056 145.764 200.665 145.526C200.278 145.287 199.824 145.168 199.302 145.168C198.735 145.168 198.24 145.307 197.818 145.586C197.399 145.861 197.075 146.221 196.846 146.666C196.621 147.107 196.509 147.586 196.509 148.103V149.284C196.509 149.976 196.63 150.566 196.873 151.051C197.12 151.537 197.465 151.908 197.905 152.165C198.346 152.417 198.861 152.543 199.45 152.543C199.833 152.543 200.181 152.489 200.496 152.381C200.811 152.268 201.083 152.102 201.313 151.881C201.542 151.661 201.718 151.389 201.839 151.065L203.748 151.409C203.595 151.971 203.321 152.464 202.925 152.887C202.534 153.305 202.041 153.631 201.448 153.865C200.858 154.094 200.186 154.209 199.43 154.209ZM213.112 157.886V152.387H212.99C212.869 152.608 212.693 152.86 212.464 153.143C212.239 153.426 211.929 153.674 211.533 153.885C211.137 154.097 210.624 154.202 209.995 154.202C209.158 154.202 208.411 153.989 207.755 153.561C207.102 153.13 206.59 152.516 206.216 151.719C205.847 150.919 205.663 149.958 205.663 148.838C205.663 147.718 205.85 146.76 206.223 145.964C206.601 145.168 207.118 144.558 207.775 144.136C208.431 143.713 209.176 143.501 210.008 143.501C210.651 143.501 211.169 143.609 211.56 143.825C211.956 144.037 212.262 144.284 212.478 144.567C212.698 144.851 212.869 145.1 212.99 145.316H213.159V143.636H215.129V157.886H213.112ZM210.44 152.482C211.02 152.482 211.51 152.329 211.911 152.023C212.316 151.713 212.621 151.283 212.828 150.734C213.04 150.186 213.146 149.547 213.146 148.818C213.146 148.098 213.042 147.469 212.835 146.929C212.628 146.389 212.325 145.969 211.924 145.667C211.524 145.366 211.029 145.215 210.44 145.215C209.833 145.215 209.327 145.373 208.922 145.688C208.517 146.002 208.211 146.432 208.004 146.976C207.802 147.52 207.701 148.134 207.701 148.818C207.701 149.511 207.804 150.134 208.011 150.687C208.218 151.24 208.524 151.679 208.929 152.003C209.338 152.322 209.842 152.482 210.44 152.482ZM224.407 149.702V143.636H226.431V154H224.447V152.205H224.339C224.101 152.759 223.718 153.22 223.192 153.588C222.67 153.953 222.02 154.135 221.242 154.135C220.576 154.135 219.987 153.989 219.474 153.696C218.966 153.4 218.566 152.961 218.273 152.381C217.985 151.8 217.842 151.083 217.842 150.228V143.636H219.859V149.985C219.859 150.692 220.055 151.254 220.446 151.672C220.837 152.091 221.346 152.3 221.971 152.3C222.349 152.3 222.724 152.205 223.098 152.016C223.475 151.827 223.788 151.542 224.035 151.159C224.287 150.777 224.411 150.291 224.407 149.702ZM229.141 154V143.636H231.159V154H229.141ZM230.16 142.037C229.809 142.037 229.508 141.92 229.256 141.686C229.009 141.448 228.885 141.165 228.885 140.836C228.885 140.503 229.009 140.22 229.256 139.986C229.508 139.748 229.809 139.629 230.16 139.629C230.511 139.629 230.81 139.748 231.058 139.986C231.309 140.22 231.435 140.503 231.435 140.836C231.435 141.165 231.309 141.448 231.058 141.686C230.81 141.92 230.511 142.037 230.16 142.037ZM233.873 154V143.636H235.823V145.283H235.931C236.12 144.725 236.452 144.286 236.929 143.967C237.411 143.643 237.955 143.481 238.562 143.481C238.688 143.481 238.836 143.486 239.007 143.495C239.183 143.504 239.32 143.515 239.419 143.528V145.458C239.338 145.436 239.194 145.411 238.987 145.384C238.78 145.352 238.573 145.337 238.366 145.337C237.89 145.337 237.465 145.438 237.091 145.64C236.722 145.838 236.43 146.115 236.214 146.47C235.998 146.821 235.89 147.221 235.89 147.671V154H233.873ZM245.26 154.209C244.239 154.209 243.36 153.991 242.622 153.555C241.889 153.114 241.322 152.495 240.922 151.699C240.526 150.899 240.328 149.961 240.328 148.886C240.328 147.824 240.526 146.888 240.922 146.079C241.322 145.269 241.88 144.637 242.595 144.183C243.315 143.729 244.156 143.501 245.119 143.501C245.703 143.501 246.27 143.598 246.819 143.792C247.368 143.985 247.86 144.289 248.297 144.702C248.733 145.116 249.077 145.654 249.329 146.315C249.581 146.972 249.707 147.77 249.707 148.71V149.425H241.468V147.914H247.73C247.73 147.383 247.622 146.913 247.406 146.504C247.19 146.09 246.886 145.764 246.495 145.526C246.108 145.287 245.654 145.168 245.132 145.168C244.565 145.168 244.071 145.307 243.648 145.586C243.229 145.861 242.906 146.221 242.676 146.666C242.451 147.107 242.339 147.586 242.339 148.103V149.284C242.339 149.976 242.46 150.566 242.703 151.051C242.951 151.537 243.295 151.908 243.735 152.165C244.176 152.417 244.691 152.543 245.281 152.543C245.663 152.543 246.011 152.489 246.326 152.381C246.641 152.268 246.913 152.102 247.143 151.881C247.372 151.661 247.548 151.389 247.669 151.065L249.578 151.409C249.426 151.971 249.151 152.464 248.755 152.887C248.364 153.305 247.871 153.631 247.278 153.865C246.688 154.094 246.016 154.209 245.26 154.209ZM255.825 154.202C254.988 154.202 254.241 153.989 253.585 153.561C252.932 153.13 252.42 152.516 252.046 151.719C251.677 150.919 251.493 149.958 251.493 148.838C251.493 147.718 251.68 146.76 252.053 145.964C252.431 145.168 252.948 144.558 253.605 144.136C254.262 143.713 255.006 143.501 255.838 143.501C256.481 143.501 256.999 143.609 257.39 143.825C257.786 144.037 258.092 144.284 258.308 144.567C258.528 144.851 258.699 145.1 258.82 145.316H258.942V140.182H260.959V154H258.989V152.387H258.82C258.699 152.608 258.524 152.86 258.294 153.143C258.069 153.426 257.759 153.674 257.363 153.885C256.967 154.097 256.454 154.202 255.825 154.202ZM256.27 152.482C256.85 152.482 257.341 152.329 257.741 152.023C258.146 151.713 258.452 151.283 258.658 150.734C258.87 150.186 258.976 149.547 258.976 148.818C258.976 148.098 258.872 147.469 258.665 146.929C258.458 146.389 258.155 145.969 257.754 145.667C257.354 145.366 256.859 145.215 256.27 145.215C255.663 145.215 255.157 145.373 254.752 145.688C254.347 146.002 254.041 146.432 253.834 146.976C253.632 147.52 253.531 148.134 253.531 148.818C253.531 149.511 253.634 150.134 253.841 150.687C254.048 151.24 254.354 151.679 254.759 152.003C255.168 152.322 255.672 152.482 256.27 152.482Z" fill="white"/>
<circle cx="36" cy="148" r="11.5" stroke="#F1F2F9"/>
<path d="M29.25 149.05L33.3145 153.25L42.75 143.5" stroke="#F1F2F9" stroke-width="2" stroke-linecap="round"/>
<path d="M62.0547 188.812C61.9827 188.173 61.6858 187.678 61.1641 187.327C60.6423 186.972 59.9856 186.794 59.1939 186.794C58.6271 186.794 58.1368 186.884 57.723 187.064C57.3092 187.24 56.9876 187.483 56.7582 187.793C56.5333 188.099 56.4208 188.447 56.4208 188.839C56.4208 189.167 56.4973 189.451 56.6502 189.689C56.8076 189.927 57.0123 190.127 57.2642 190.289C57.5206 190.447 57.795 190.58 58.0874 190.688C58.3797 190.791 58.6609 190.876 58.9308 190.944L60.2802 191.295C60.721 191.403 61.1731 191.549 61.6364 191.733C62.0997 191.918 62.5292 192.161 62.9251 192.462C63.3209 192.763 63.6403 193.137 63.8832 193.582C64.1306 194.027 64.2543 194.56 64.2543 195.181C64.2543 195.964 64.0518 196.659 63.647 197.266C63.2467 197.873 62.6642 198.352 61.8995 198.703C61.1393 199.054 60.2195 199.229 59.1399 199.229C58.1054 199.229 57.2102 199.065 56.4545 198.737C55.6989 198.408 55.1074 197.943 54.68 197.34C54.2527 196.733 54.0166 196.013 53.9716 195.181H56.0632C56.1037 195.68 56.2656 196.096 56.549 196.429C56.8369 196.758 57.2035 197.003 57.6488 197.165C58.0986 197.322 58.5911 197.401 59.1264 197.401C59.7157 197.401 60.2397 197.309 60.6985 197.124C61.1618 196.935 61.5262 196.674 61.7915 196.342C62.0569 196.004 62.1896 195.611 62.1896 195.161C62.1896 194.752 62.0727 194.416 61.8388 194.156C61.6094 193.895 61.2968 193.679 60.9009 193.508C60.5096 193.337 60.0665 193.186 59.5717 193.056L57.9389 192.61C56.8324 192.309 55.9553 191.866 55.3075 191.281C54.6643 190.696 54.3427 189.923 54.3427 188.96C54.3427 188.164 54.5586 187.469 54.9904 186.875C55.4222 186.282 56.007 185.821 56.7447 185.492C57.4824 185.159 58.3145 184.993 59.2411 184.993C60.1767 184.993 61.0021 185.157 61.7173 185.485C62.437 185.814 63.0038 186.266 63.4176 186.842C63.8314 187.413 64.0473 188.07 64.0653 188.812H62.0547ZM71.0503 199.209C70.0293 199.209 69.1499 198.991 68.4122 198.555C67.679 198.114 67.1122 197.495 66.7119 196.699C66.3161 195.899 66.1182 194.961 66.1182 193.886C66.1182 192.824 66.3161 191.888 66.7119 191.079C67.1122 190.269 67.67 189.637 68.3852 189.183C69.1049 188.729 69.9461 188.501 70.9086 188.501C71.4934 188.501 72.0602 188.598 72.6089 188.792C73.1577 188.985 73.6502 189.289 74.0866 189.702C74.5229 190.116 74.867 190.654 75.1189 191.315C75.3708 191.972 75.4967 192.77 75.4967 193.71V194.425H67.2584V192.914H73.5198C73.5198 192.383 73.4118 191.913 73.1959 191.504C72.98 191.09 72.6764 190.764 72.2851 190.526C71.8982 190.287 71.4439 190.168 70.9221 190.168C70.3554 190.168 69.8606 190.307 69.4378 190.586C69.0194 190.861 68.6956 191.221 68.4662 191.666C68.2413 192.107 68.1288 192.586 68.1288 193.103V194.284C68.1288 194.976 68.2503 195.566 68.4932 196.051C68.7406 196.537 69.0847 196.908 69.5255 197.165C69.9663 197.417 70.4813 197.543 71.0706 197.543C71.4529 197.543 71.8015 197.489 72.1164 197.381C72.4313 197.268 72.7034 197.102 72.9328 196.881C73.1622 196.661 73.3376 196.389 73.4591 196.065L75.3685 196.409C75.2156 196.971 74.9412 197.464 74.5454 197.887C74.154 198.305 73.6615 198.631 73.0677 198.865C72.4785 199.094 71.806 199.209 71.0503 199.209ZM82.1005 199.209C81.0974 199.209 80.2338 198.982 79.5096 198.528C78.7899 198.069 78.2366 197.437 77.8498 196.632C77.4629 195.827 77.2695 194.904 77.2695 193.865C77.2695 192.813 77.4674 191.884 77.8633 191.079C78.2591 190.269 78.8169 189.637 79.5366 189.183C80.2563 188.729 81.1042 188.501 82.0803 188.501C82.8674 188.501 83.5691 188.648 84.1854 188.94C84.8016 189.228 85.2987 189.633 85.6765 190.154C86.0588 190.676 86.286 191.286 86.358 191.983H84.3945C84.2866 191.497 84.0392 191.079 83.6523 190.728C83.27 190.377 82.7572 190.202 82.114 190.202C81.5517 190.202 81.0592 190.35 80.6364 190.647C80.218 190.939 79.8919 191.358 79.658 191.902C79.4241 192.442 79.3072 193.08 79.3072 193.818C79.3072 194.574 79.4219 195.226 79.6513 195.775C79.8807 196.324 80.2045 196.749 80.6229 197.05C81.0457 197.351 81.5427 197.502 82.114 197.502C82.4963 197.502 82.8427 197.432 83.1531 197.293C83.4679 197.149 83.7311 196.944 83.9425 196.679C84.1584 196.414 84.3091 196.094 84.3945 195.721H86.358C86.286 196.391 86.0678 196.989 85.7035 197.516C85.3391 198.042 84.8511 198.456 84.2393 198.757C83.6321 199.058 82.9192 199.209 82.1005 199.209ZM95.0803 194.702V188.636H97.1045V199H95.1208V197.205H95.0129C94.7745 197.759 94.3921 198.22 93.8659 198.588C93.3441 198.953 92.6941 199.135 91.9159 199.135C91.2502 199.135 90.661 198.989 90.1482 198.696C89.6399 198.4 89.2396 197.961 88.9472 197.381C88.6593 196.8 88.5154 196.083 88.5154 195.228V188.636H90.5328V194.985C90.5328 195.692 90.7284 196.254 91.1198 196.672C91.5111 197.091 92.0194 197.3 92.6446 197.3C93.0225 197.3 93.3981 197.205 93.7714 197.016C94.1492 196.827 94.4619 196.542 94.7093 196.159C94.9611 195.777 95.0848 195.291 95.0803 194.702ZM99.8152 199V188.636H101.765V190.283H101.873C102.062 189.725 102.395 189.286 102.872 188.967C103.353 188.643 103.897 188.481 104.504 188.481C104.63 188.481 104.779 188.486 104.95 188.495C105.125 188.504 105.262 188.515 105.361 188.528V190.458C105.28 190.436 105.136 190.411 104.93 190.384C104.723 190.352 104.516 190.337 104.309 190.337C103.832 190.337 103.407 190.438 103.034 190.64C102.665 190.838 102.372 191.115 102.156 191.47C101.941 191.821 101.833 192.221 101.833 192.671V199H99.8152ZM111.203 199.209C110.182 199.209 109.302 198.991 108.565 198.555C107.831 198.114 107.265 197.495 106.864 196.699C106.468 195.899 106.271 194.961 106.271 193.886C106.271 192.824 106.468 191.888 106.864 191.079C107.265 190.269 107.822 189.637 108.538 189.183C109.257 188.729 110.098 188.501 111.061 188.501C111.646 188.501 112.213 188.598 112.761 188.792C113.31 188.985 113.803 189.289 114.239 189.702C114.675 190.116 115.019 190.654 115.271 191.315C115.523 191.972 115.649 192.77 115.649 193.71V194.425H107.411V192.914H113.672C113.672 192.383 113.564 191.913 113.348 191.504C113.132 191.09 112.829 190.764 112.437 190.526C112.051 190.287 111.596 190.168 111.074 190.168C110.508 190.168 110.013 190.307 109.59 190.586C109.172 190.861 108.848 191.221 108.619 191.666C108.394 192.107 108.281 192.586 108.281 193.103V194.284C108.281 194.976 108.403 195.566 108.646 196.051C108.893 196.537 109.237 196.908 109.678 197.165C110.119 197.417 110.634 197.543 111.223 197.543C111.605 197.543 111.954 197.489 112.269 197.381C112.584 197.268 112.856 197.102 113.085 196.881C113.315 196.661 113.49 196.389 113.611 196.065L115.521 196.409C115.368 196.971 115.094 197.464 114.698 197.887C114.306 198.305 113.814 198.631 113.22 198.865C112.631 199.094 111.958 199.209 111.203 199.209ZM126.795 199.202C125.959 199.202 125.212 198.989 124.555 198.561C123.903 198.13 123.39 197.516 123.017 196.719C122.648 195.919 122.464 194.958 122.464 193.838C122.464 192.718 122.65 191.76 123.024 190.964C123.402 190.168 123.919 189.558 124.576 189.136C125.232 188.713 125.977 188.501 126.809 188.501C127.452 188.501 127.969 188.609 128.361 188.825C128.757 189.037 129.062 189.284 129.278 189.567C129.499 189.851 129.67 190.1 129.791 190.316H129.913V185.182H131.93V199H129.96V197.387H129.791C129.67 197.608 129.494 197.86 129.265 198.143C129.04 198.426 128.73 198.674 128.334 198.885C127.938 199.097 127.425 199.202 126.795 199.202ZM127.241 197.482C127.821 197.482 128.311 197.329 128.712 197.023C129.116 196.713 129.422 196.283 129.629 195.734C129.841 195.186 129.946 194.547 129.946 193.818C129.946 193.098 129.843 192.469 129.636 191.929C129.429 191.389 129.125 190.969 128.725 190.667C128.325 190.366 127.83 190.215 127.241 190.215C126.633 190.215 126.127 190.373 125.723 190.688C125.318 191.002 125.012 191.432 124.805 191.976C124.603 192.52 124.501 193.134 124.501 193.818C124.501 194.511 124.605 195.134 124.812 195.687C125.019 196.24 125.324 196.679 125.729 197.003C126.139 197.322 126.642 197.482 127.241 197.482ZM137.825 199.229C137.169 199.229 136.575 199.108 136.044 198.865C135.513 198.618 135.093 198.26 134.782 197.792C134.476 197.324 134.324 196.751 134.324 196.072C134.324 195.487 134.436 195.006 134.661 194.628C134.886 194.25 135.189 193.951 135.572 193.73C135.954 193.51 136.381 193.344 136.854 193.231C137.326 193.119 137.807 193.033 138.298 192.975C138.918 192.903 139.422 192.844 139.809 192.799C140.196 192.75 140.477 192.671 140.652 192.563C140.828 192.455 140.915 192.28 140.915 192.037V191.99C140.915 191.4 140.749 190.944 140.416 190.62C140.088 190.296 139.598 190.134 138.945 190.134C138.266 190.134 137.731 190.285 137.339 190.586C136.953 190.883 136.685 191.214 136.537 191.578L134.641 191.146C134.866 190.517 135.194 190.008 135.626 189.621C136.062 189.23 136.564 188.947 137.13 188.771C137.697 188.591 138.293 188.501 138.918 188.501C139.332 188.501 139.771 188.551 140.234 188.65C140.702 188.744 141.138 188.92 141.543 189.176C141.952 189.433 142.287 189.799 142.548 190.276C142.809 190.748 142.94 191.362 142.94 192.118V199H140.969V197.583H140.888C140.758 197.844 140.562 198.1 140.301 198.352C140.041 198.604 139.705 198.813 139.296 198.98C138.887 199.146 138.397 199.229 137.825 199.229ZM138.264 197.61C138.822 197.61 139.298 197.5 139.694 197.279C140.095 197.059 140.398 196.771 140.605 196.416C140.817 196.056 140.922 195.671 140.922 195.262V193.926C140.85 193.998 140.711 194.066 140.504 194.129C140.301 194.187 140.07 194.239 139.809 194.284C139.548 194.324 139.294 194.362 139.047 194.398C138.799 194.43 138.592 194.457 138.426 194.479C138.034 194.529 137.677 194.612 137.353 194.729C137.034 194.846 136.777 195.015 136.584 195.235C136.395 195.451 136.3 195.739 136.3 196.099C136.3 196.598 136.485 196.976 136.854 197.232C137.223 197.484 137.693 197.61 138.264 197.61ZM150.464 188.636V190.256H144.804V188.636H150.464ZM146.322 186.153H148.339V195.957C148.339 196.348 148.398 196.643 148.514 196.841C148.631 197.034 148.782 197.167 148.967 197.239C149.155 197.306 149.36 197.34 149.581 197.34C149.742 197.34 149.884 197.329 150.006 197.306C150.127 197.284 150.222 197.266 150.289 197.252L150.653 198.919C150.536 198.964 150.37 199.009 150.154 199.054C149.938 199.103 149.668 199.13 149.344 199.135C148.814 199.144 148.319 199.049 147.86 198.852C147.401 198.654 147.03 198.348 146.747 197.934C146.463 197.52 146.322 197.001 146.322 196.375V186.153ZM155.712 199.229C155.055 199.229 154.462 199.108 153.931 198.865C153.4 198.618 152.979 198.26 152.669 197.792C152.363 197.324 152.21 196.751 152.21 196.072C152.21 195.487 152.323 195.006 152.548 194.628C152.772 194.25 153.076 193.951 153.458 193.73C153.841 193.51 154.268 193.344 154.74 193.231C155.213 193.119 155.694 193.033 156.184 192.975C156.805 192.903 157.309 192.844 157.696 192.799C158.083 192.75 158.364 192.671 158.539 192.563C158.714 192.455 158.802 192.28 158.802 192.037V191.99C158.802 191.4 158.636 190.944 158.303 190.62C157.975 190.296 157.484 190.134 156.832 190.134C156.153 190.134 155.618 190.285 155.226 190.586C154.839 190.883 154.572 191.214 154.423 191.578L152.527 191.146C152.752 190.517 153.081 190.008 153.512 189.621C153.949 189.23 154.45 188.947 155.017 188.771C155.584 188.591 156.18 188.501 156.805 188.501C157.219 188.501 157.657 188.551 158.121 188.65C158.589 188.744 159.025 188.92 159.43 189.176C159.839 189.433 160.174 189.799 160.435 190.276C160.696 190.748 160.826 191.362 160.826 192.118V199H158.856V197.583H158.775C158.645 197.844 158.449 198.1 158.188 198.352C157.927 198.604 157.592 198.813 157.183 198.98C156.774 199.146 156.283 199.229 155.712 199.229ZM156.151 197.61C156.708 197.61 157.185 197.5 157.581 197.279C157.981 197.059 158.285 196.771 158.492 196.416C158.703 196.056 158.809 195.671 158.809 195.262V193.926C158.737 193.998 158.598 194.066 158.391 194.129C158.188 194.187 157.957 194.239 157.696 194.284C157.435 194.324 157.181 194.362 156.933 194.398C156.686 194.43 156.479 194.457 156.312 194.479C155.921 194.529 155.564 194.612 155.24 194.729C154.92 194.846 154.664 195.015 154.471 195.235C154.282 195.451 154.187 195.739 154.187 196.099C154.187 196.598 154.372 196.976 154.74 197.232C155.109 197.484 155.579 197.61 156.151 197.61ZM168.704 199V185.182H170.789V191.187H177.677V185.182H179.769V199H177.677V192.975H170.789V199H168.704ZM185.659 199.229C185.003 199.229 184.409 199.108 183.878 198.865C183.347 198.618 182.927 198.26 182.616 197.792C182.31 197.324 182.157 196.751 182.157 196.072C182.157 195.487 182.27 195.006 182.495 194.628C182.72 194.25 183.023 193.951 183.406 193.73C183.788 193.51 184.215 193.344 184.688 193.231C185.16 193.119 185.641 193.033 186.132 192.975C186.752 192.903 187.256 192.844 187.643 192.799C188.03 192.75 188.311 192.671 188.486 192.563C188.662 192.455 188.749 192.28 188.749 192.037V191.99C188.749 191.4 188.583 190.944 188.25 190.62C187.922 190.296 187.432 190.134 186.779 190.134C186.1 190.134 185.565 190.285 185.173 190.586C184.787 190.883 184.519 191.214 184.371 191.578L182.475 191.146C182.7 190.517 183.028 190.008 183.46 189.621C183.896 189.23 184.398 188.947 184.964 188.771C185.531 188.591 186.127 188.501 186.752 188.501C187.166 188.501 187.605 188.551 188.068 188.65C188.536 188.744 188.972 188.92 189.377 189.176C189.786 189.433 190.121 189.799 190.382 190.276C190.643 190.748 190.774 191.362 190.774 192.118V199H188.803V197.583H188.722C188.592 197.844 188.396 198.1 188.135 198.352C187.875 198.604 187.539 198.813 187.13 198.98C186.721 199.146 186.231 199.229 185.659 199.229ZM186.098 197.61C186.656 197.61 187.132 197.5 187.528 197.279C187.929 197.059 188.232 196.771 188.439 196.416C188.651 196.056 188.756 195.671 188.756 195.262V193.926C188.684 193.998 188.545 194.066 188.338 194.129C188.135 194.187 187.904 194.239 187.643 194.284C187.382 194.324 187.128 194.362 186.881 194.398C186.633 194.43 186.426 194.457 186.26 194.479C185.868 194.529 185.511 194.612 185.187 194.729C184.868 194.846 184.611 195.015 184.418 195.235C184.229 195.451 184.134 195.739 184.134 196.099C184.134 196.598 184.319 196.976 184.688 197.232C185.057 197.484 185.527 197.61 186.098 197.61ZM195.478 192.847V199H193.461V188.636H195.397V190.323H195.525C195.764 189.774 196.137 189.334 196.645 189.001C197.158 188.668 197.804 188.501 198.582 188.501C199.288 188.501 199.906 188.65 200.437 188.947C200.968 189.239 201.38 189.675 201.672 190.256C201.964 190.836 202.111 191.553 202.111 192.408V199H200.093V192.651C200.093 191.9 199.897 191.313 199.506 190.89C199.115 190.463 198.577 190.249 197.894 190.249C197.426 190.249 197.01 190.35 196.645 190.553C196.285 190.755 196 191.052 195.788 191.443C195.582 191.83 195.478 192.298 195.478 192.847ZM208.696 199.202C207.859 199.202 207.112 198.989 206.456 198.561C205.803 198.13 205.291 197.516 204.917 196.719C204.549 195.919 204.364 194.958 204.364 193.838C204.364 192.718 204.551 191.76 204.924 190.964C205.302 190.168 205.819 189.558 206.476 189.136C207.133 188.713 207.877 188.501 208.709 188.501C209.352 188.501 209.87 188.609 210.261 188.825C210.657 189.037 210.963 189.284 211.179 189.567C211.399 189.851 211.57 190.1 211.691 190.316H211.813V185.182H213.83V199H211.86V197.387H211.691C211.57 197.608 211.395 197.86 211.165 198.143C210.94 198.426 210.63 198.674 210.234 198.885C209.838 199.097 209.325 199.202 208.696 199.202ZM209.141 197.482C209.721 197.482 210.212 197.329 210.612 197.023C211.017 196.713 211.323 196.283 211.53 195.734C211.741 195.186 211.847 194.547 211.847 193.818C211.847 193.098 211.743 192.469 211.536 191.929C211.329 191.389 211.026 190.969 210.625 190.667C210.225 190.366 209.73 190.215 209.141 190.215C208.534 190.215 208.028 190.373 207.623 190.688C207.218 191.002 206.912 191.432 206.705 191.976C206.503 192.52 206.402 193.134 206.402 193.818C206.402 194.511 206.505 195.134 206.712 195.687C206.919 196.24 207.225 196.679 207.63 197.003C208.039 197.322 208.543 197.482 209.141 197.482ZM218.727 185.182V199H216.71V185.182H218.727ZM221.441 199V188.636H223.459V199H221.441ZM222.46 187.037C222.109 187.037 221.808 186.92 221.556 186.686C221.308 186.448 221.185 186.165 221.185 185.836C221.185 185.503 221.308 185.22 221.556 184.986C221.808 184.748 222.109 184.629 222.46 184.629C222.811 184.629 223.11 184.748 223.357 184.986C223.609 185.22 223.735 185.503 223.735 185.836C223.735 186.165 223.609 186.448 223.357 186.686C223.11 186.92 222.811 187.037 222.46 187.037ZM228.19 192.847V199H226.173V188.636H228.109V190.323H228.237C228.476 189.774 228.849 189.334 229.357 189.001C229.87 188.668 230.516 188.501 231.294 188.501C232 188.501 232.618 188.65 233.149 188.947C233.68 189.239 234.092 189.675 234.384 190.256C234.676 190.836 234.822 191.553 234.822 192.408V199H232.805V192.651C232.805 191.9 232.609 191.313 232.218 190.89C231.827 190.463 231.289 190.249 230.605 190.249C230.138 190.249 229.722 190.35 229.357 190.553C228.997 190.755 228.712 191.052 228.5 191.443C228.293 191.83 228.19 192.298 228.19 192.847ZM241.873 203.102C241.05 203.102 240.342 202.994 239.748 202.778C239.159 202.563 238.677 202.277 238.304 201.922C237.931 201.566 237.652 201.177 237.467 200.754L239.201 200.039C239.323 200.237 239.485 200.446 239.687 200.667C239.894 200.891 240.173 201.083 240.524 201.24C240.879 201.397 241.336 201.476 241.893 201.476C242.658 201.476 243.29 201.29 243.789 200.916C244.289 200.547 244.538 199.958 244.538 199.148V197.111H244.41C244.289 197.331 244.113 197.576 243.884 197.846C243.659 198.116 243.349 198.35 242.953 198.548C242.557 198.746 242.042 198.845 241.408 198.845C240.589 198.845 239.851 198.654 239.195 198.271C238.542 197.884 238.025 197.315 237.643 196.564C237.265 195.809 237.076 194.88 237.076 193.778C237.076 192.676 237.263 191.731 237.636 190.944C238.014 190.157 238.531 189.554 239.188 189.136C239.845 188.713 240.589 188.501 241.421 188.501C242.064 188.501 242.584 188.609 242.98 188.825C243.376 189.037 243.684 189.284 243.904 189.567C244.129 189.851 244.302 190.1 244.424 190.316H244.572V188.636H246.549V199.229C246.549 200.12 246.342 200.851 245.928 201.422C245.514 201.993 244.954 202.416 244.248 202.691C243.547 202.965 242.755 203.102 241.873 203.102ZM241.853 197.172C242.433 197.172 242.924 197.037 243.324 196.767C243.729 196.492 244.035 196.101 244.241 195.593C244.453 195.08 244.559 194.466 244.559 193.751C244.559 193.054 244.455 192.44 244.248 191.909C244.041 191.378 243.738 190.964 243.337 190.667C242.937 190.366 242.442 190.215 241.853 190.215C241.246 190.215 240.74 190.373 240.335 190.688C239.93 190.998 239.624 191.421 239.417 191.956C239.215 192.491 239.114 193.089 239.114 193.751C239.114 194.43 239.217 195.026 239.424 195.539C239.631 196.051 239.937 196.452 240.342 196.74C240.751 197.028 241.255 197.172 241.853 197.172Z" fill="white"/>
<circle cx="36" cy="193" r="11.5" stroke="#F1F2F9"/>
<path d="M29.25 194.05L33.3145 198.25L42.75 188.5" stroke="#F1F2F9" stroke-width="2" stroke-linecap="round"/>
<path d="M56.603 95.1818V109H54.5181V95.1818H56.603ZM61.4947 102.847V109H59.4773V98.6364H61.4137V100.323H61.5419C61.7803 99.7744 62.1536 99.3336 62.6619 99.0007C63.1747 98.6679 63.8202 98.5014 64.5984 98.5014C65.3046 98.5014 65.9231 98.6499 66.4538 98.9467C66.9846 99.2391 67.3962 99.6754 67.6886 100.256C67.9809 100.836 68.1271 101.553 68.1271 102.408V109H66.1097V102.651C66.1097 101.9 65.9141 101.313 65.5227 100.89C65.1314 100.463 64.5939 100.249 63.9102 100.249C63.4424 100.249 63.0263 100.35 62.6619 100.553C62.3021 100.755 62.0165 101.052 61.805 101.443C61.5981 101.83 61.4947 102.298 61.4947 102.847ZM74.7124 109.202C73.8757 109.202 73.129 108.989 72.4723 108.561C71.8201 108.13 71.3073 107.516 70.9339 106.719C70.5651 105.919 70.3807 104.958 70.3807 103.838C70.3807 102.718 70.5674 101.76 70.9407 100.964C71.3185 100.168 71.8358 99.5585 72.4925 99.1357C73.1493 98.7128 73.8937 98.5014 74.7259 98.5014C75.3691 98.5014 75.8864 98.6094 76.2777 98.8253C76.6735 99.0367 76.9794 99.2841 77.1953 99.5675C77.4157 99.8509 77.5866 100.1 77.7081 100.316H77.8295V95.1818H79.8469V109H77.8768V107.387H77.7081C77.5866 107.608 77.4112 107.86 77.1818 108.143C76.9569 108.426 76.6465 108.674 76.2507 108.885C75.8549 109.097 75.3421 109.202 74.7124 109.202ZM75.1577 107.482C75.7379 107.482 76.2282 107.329 76.6286 107.023C77.0334 106.713 77.3393 106.283 77.5462 105.734C77.7576 105.186 77.8633 104.547 77.8633 103.818C77.8633 103.098 77.7598 102.469 77.5529 101.929C77.346 101.389 77.0424 100.969 76.642 100.667C76.2417 100.366 75.7469 100.215 75.1577 100.215C74.5504 100.215 74.0444 100.373 73.6396 100.688C73.2347 101.002 72.9289 101.432 72.7219 101.976C72.5195 102.52 72.4183 103.134 72.4183 103.818C72.4183 104.511 72.5218 105.134 72.7287 105.687C72.9356 106.24 73.2415 106.679 73.6463 107.003C74.0556 107.322 74.5594 107.482 75.1577 107.482ZM89.2913 104.702V98.6364H91.3154V109H89.3318V107.205H89.2238C88.9854 107.759 88.6031 108.22 88.0768 108.588C87.555 108.953 86.905 109.135 86.1269 109.135C85.4611 109.135 84.8719 108.989 84.3591 108.696C83.8508 108.4 83.4505 107.961 83.1581 107.381C82.8702 106.8 82.7263 106.083 82.7263 105.228V98.6364H84.7437V104.985C84.7437 105.692 84.9394 106.254 85.3307 106.672C85.722 107.091 86.2303 107.3 86.8556 107.3C87.2334 107.3 87.609 107.205 87.9823 107.016C88.3602 106.827 88.6728 106.542 88.9202 106.159C89.1721 105.777 89.2958 105.291 89.2913 104.702ZM101.792 101.167L99.9636 101.49C99.8871 101.257 99.7657 101.034 99.5993 100.822C99.4373 100.611 99.2169 100.438 98.938 100.303C98.6592 100.168 98.3105 100.1 97.8922 100.1C97.321 100.1 96.8442 100.229 96.4618 100.485C96.0795 100.737 95.8883 101.063 95.8883 101.463C95.8883 101.81 96.0165 102.089 96.2729 102.3C96.5293 102.511 96.9431 102.685 97.5144 102.82L99.1607 103.197C100.114 103.418 100.825 103.757 101.293 104.216C101.761 104.675 101.994 105.271 101.994 106.004C101.994 106.625 101.815 107.178 101.455 107.664C101.099 108.145 100.602 108.523 99.9636 108.798C99.3294 109.072 98.5939 109.209 97.7573 109.209C96.5968 109.209 95.6499 108.962 94.9167 108.467C94.1835 107.968 93.7337 107.259 93.5673 106.342L95.5172 106.045C95.6387 106.553 95.8883 106.938 96.2662 107.199C96.644 107.455 97.1365 107.583 97.7438 107.583C98.405 107.583 98.9335 107.446 99.3294 107.172C99.7252 106.893 99.9231 106.553 99.9231 106.153C99.9231 105.829 99.8017 105.557 99.5588 105.336C99.3204 105.116 98.9538 104.949 98.459 104.837L96.7047 104.452C95.7376 104.232 95.0224 103.881 94.5591 103.4C94.1003 102.919 93.8709 102.309 93.8709 101.571C93.8709 100.96 94.0418 100.424 94.3837 99.9656C94.7256 99.5067 95.1979 99.1491 95.8006 98.8928C96.4034 98.6319 97.0938 98.5014 97.872 98.5014C98.992 98.5014 99.8736 98.7443 100.517 99.2301C101.16 99.7114 101.585 100.357 101.792 101.167ZM109.05 98.6364V100.256H103.389V98.6364H109.05ZM104.908 96.1534H106.925V105.957C106.925 106.348 106.983 106.643 107.1 106.841C107.217 107.034 107.368 107.167 107.552 107.239C107.741 107.306 107.946 107.34 108.166 107.34C108.328 107.34 108.47 107.329 108.592 107.306C108.713 107.284 108.807 107.266 108.875 107.252L109.239 108.919C109.122 108.964 108.956 109.009 108.74 109.054C108.524 109.103 108.254 109.13 107.93 109.135C107.4 109.144 106.905 109.049 106.446 108.852C105.987 108.654 105.616 108.348 105.333 107.934C105.049 107.52 104.908 107.001 104.908 106.375V96.1534ZM111.282 109V98.6364H113.232V100.283H113.34C113.529 99.7249 113.862 99.2863 114.338 98.967C114.82 98.6431 115.364 98.4812 115.971 98.4812C116.097 98.4812 116.246 98.4857 116.417 98.4947C116.592 98.5037 116.729 98.5149 116.828 98.5284V100.458C116.747 100.436 116.603 100.411 116.396 100.384C116.189 100.352 115.982 100.337 115.776 100.337C115.299 100.337 114.874 100.438 114.5 100.64C114.132 100.838 113.839 101.115 113.623 101.47C113.407 101.821 113.299 102.221 113.299 102.671V109H111.282ZM120.165 112.886C119.863 112.886 119.589 112.862 119.341 112.812C119.094 112.767 118.91 112.718 118.788 112.664L119.274 111.011C119.643 111.11 119.971 111.152 120.259 111.139C120.547 111.125 120.801 111.017 121.021 110.815C121.246 110.613 121.444 110.282 121.615 109.823L121.865 109.135L118.073 98.6364H120.232L122.857 106.679H122.965L125.589 98.6364H127.755L123.484 110.383C123.286 110.923 123.034 111.379 122.729 111.753C122.423 112.131 122.058 112.414 121.635 112.603C121.213 112.792 120.722 112.886 120.165 112.886ZM142.378 98.8118C142.306 98.1731 142.009 97.6783 141.487 97.3274C140.966 96.9721 140.309 96.7944 139.517 96.7944C138.95 96.7944 138.46 96.8844 138.046 97.0643C137.632 97.2397 137.311 97.4826 137.081 97.793C136.857 98.0988 136.744 98.4474 136.744 98.8388C136.744 99.1671 136.821 99.4505 136.973 99.6889C137.131 99.9273 137.336 100.127 137.587 100.289C137.844 100.447 138.118 100.58 138.411 100.688C138.703 100.791 138.984 100.876 139.254 100.944L140.603 101.295C141.044 101.403 141.496 101.549 141.96 101.733C142.423 101.918 142.852 102.161 143.248 102.462C143.644 102.763 143.964 103.137 144.206 103.582C144.454 104.027 144.578 104.56 144.578 105.181C144.578 105.964 144.375 106.659 143.97 107.266C143.57 107.873 142.987 108.352 142.223 108.703C141.463 109.054 140.543 109.229 139.463 109.229C138.429 109.229 137.533 109.065 136.778 108.737C136.022 108.408 135.431 107.943 135.003 107.34C134.576 106.733 134.34 106.013 134.295 105.181H136.386C136.427 105.68 136.589 106.096 136.872 106.429C137.16 106.758 137.527 107.003 137.972 107.165C138.422 107.322 138.914 107.401 139.45 107.401C140.039 107.401 140.563 107.309 141.022 107.124C141.485 106.935 141.849 106.674 142.115 106.342C142.38 106.004 142.513 105.611 142.513 105.161C142.513 104.752 142.396 104.416 142.162 104.156C141.933 103.895 141.62 103.679 141.224 103.508C140.833 103.337 140.39 103.186 139.895 103.056L138.262 102.61C137.156 102.309 136.278 101.866 135.631 101.281C134.988 100.696 134.666 99.9228 134.666 98.9602C134.666 98.1641 134.882 97.4691 135.314 96.8754C135.745 96.2816 136.33 95.8205 137.068 95.4922C137.806 95.1593 138.638 94.9929 139.564 94.9929C140.5 94.9929 141.325 95.1571 142.041 95.4854C142.76 95.8138 143.327 96.2659 143.741 96.8416C144.155 97.4129 144.371 98.0696 144.389 98.8118H142.378ZM151.745 98.6364V100.256H146.084V98.6364H151.745ZM147.602 96.1534H149.619V105.957C149.619 106.348 149.678 106.643 149.795 106.841C149.912 107.034 150.062 107.167 150.247 107.239C150.436 107.306 150.64 107.34 150.861 107.34C151.023 107.34 151.164 107.329 151.286 107.306C151.407 107.284 151.502 107.266 151.569 107.252L151.934 108.919C151.817 108.964 151.65 109.009 151.434 109.054C151.218 109.103 150.949 109.13 150.625 109.135C150.094 109.144 149.599 109.049 149.14 108.852C148.681 108.654 148.31 108.348 148.027 107.934C147.744 107.52 147.602 107.001 147.602 106.375V96.1534ZM156.992 109.229C156.336 109.229 155.742 109.108 155.211 108.865C154.68 108.618 154.26 108.26 153.949 107.792C153.643 107.324 153.491 106.751 153.491 106.072C153.491 105.487 153.603 105.006 153.828 104.628C154.053 104.25 154.356 103.951 154.739 103.73C155.121 103.51 155.548 103.344 156.021 103.231C156.493 103.119 156.974 103.033 157.465 102.975C158.085 102.903 158.589 102.844 158.976 102.799C159.363 102.75 159.644 102.671 159.819 102.563C159.995 102.455 160.082 102.28 160.082 102.037V101.99C160.082 101.4 159.916 100.944 159.583 100.62C159.255 100.296 158.765 100.134 158.112 100.134C157.433 100.134 156.898 100.285 156.506 100.586C156.12 100.883 155.852 101.214 155.704 101.578L153.808 101.146C154.033 100.517 154.361 100.008 154.793 99.6214C155.229 99.2301 155.731 98.9467 156.297 98.7713C156.864 98.5914 157.46 98.5014 158.085 98.5014C158.499 98.5014 158.938 98.5509 159.401 98.6499C159.869 98.7443 160.305 98.9197 160.71 99.1761C161.119 99.4325 161.454 99.7991 161.715 100.276C161.976 100.748 162.107 101.362 162.107 102.118V109H160.136V107.583H160.055C159.925 107.844 159.729 108.1 159.468 108.352C159.208 108.604 158.872 108.813 158.463 108.98C158.054 109.146 157.564 109.229 156.992 109.229ZM157.431 107.61C157.989 107.61 158.465 107.5 158.861 107.279C159.262 107.059 159.565 106.771 159.772 106.416C159.984 106.056 160.089 105.671 160.089 105.262V103.926C160.017 103.998 159.878 104.066 159.671 104.129C159.468 104.187 159.237 104.239 158.976 104.284C158.715 104.324 158.461 104.362 158.214 104.398C157.966 104.43 157.759 104.457 157.593 104.479C157.201 104.529 156.844 104.612 156.52 104.729C156.201 104.846 155.944 105.015 155.751 105.235C155.562 105.451 155.467 105.739 155.467 106.099C155.467 106.598 155.652 106.976 156.021 107.232C156.39 107.484 156.86 107.61 157.431 107.61ZM166.811 102.847V109H164.794V98.6364H166.73V100.323H166.858C167.097 99.7744 167.47 99.3336 167.978 99.0007C168.491 98.6679 169.137 98.5014 169.915 98.5014C170.621 98.5014 171.239 98.6499 171.77 98.9467C172.301 99.2391 172.713 99.6754 173.005 100.256C173.297 100.836 173.444 101.553 173.444 102.408V109H171.426V102.651C171.426 101.9 171.23 101.313 170.839 100.89C170.448 100.463 169.91 100.249 169.227 100.249C168.759 100.249 168.343 100.35 167.978 100.553C167.618 100.755 167.333 101.052 167.121 101.443C166.915 101.83 166.811 102.298 166.811 102.847ZM180.029 109.202C179.192 109.202 178.445 108.989 177.789 108.561C177.136 108.13 176.624 107.516 176.25 106.719C175.882 105.919 175.697 104.958 175.697 103.838C175.697 102.718 175.884 101.76 176.257 100.964C176.635 100.168 177.152 99.5585 177.809 99.1357C178.466 98.7128 179.21 98.5014 180.042 98.5014C180.685 98.5014 181.203 98.6094 181.594 98.8253C181.99 99.0367 182.296 99.2841 182.512 99.5675C182.732 99.8509 182.903 100.1 183.025 100.316H183.146V95.1818H185.163V109H183.193V107.387H183.025C182.903 107.608 182.728 107.86 182.498 108.143C182.273 108.426 181.963 108.674 181.567 108.885C181.171 109.097 180.658 109.202 180.029 109.202ZM180.474 107.482C181.054 107.482 181.545 107.329 181.945 107.023C182.35 106.713 182.656 106.283 182.863 105.734C183.074 105.186 183.18 104.547 183.18 103.818C183.18 103.098 183.076 102.469 182.869 101.929C182.662 101.389 182.359 100.969 181.958 100.667C181.558 100.366 181.063 100.215 180.474 100.215C179.867 100.215 179.361 100.373 178.956 100.688C178.551 101.002 178.245 101.432 178.038 101.976C177.836 102.52 177.735 103.134 177.735 103.818C177.735 104.511 177.838 105.134 178.045 105.687C178.252 106.24 178.558 106.679 178.963 107.003C179.372 107.322 179.876 107.482 180.474 107.482ZM191.059 109.229C190.402 109.229 189.808 109.108 189.277 108.865C188.747 108.618 188.326 108.26 188.016 107.792C187.71 107.324 187.557 106.751 187.557 106.072C187.557 105.487 187.669 105.006 187.894 104.628C188.119 104.25 188.423 103.951 188.805 103.73C189.187 103.51 189.615 103.344 190.087 103.231C190.559 103.119 191.041 103.033 191.531 102.975C192.152 102.903 192.656 102.844 193.042 102.799C193.429 102.75 193.71 102.671 193.886 102.563C194.061 102.455 194.149 102.28 194.149 102.037V101.99C194.149 101.4 193.982 100.944 193.65 100.62C193.321 100.296 192.831 100.134 192.179 100.134C191.499 100.134 190.964 100.285 190.573 100.586C190.186 100.883 189.918 101.214 189.77 101.578L187.874 101.146C188.099 100.517 188.427 100.008 188.859 99.6214C189.295 99.2301 189.797 98.9467 190.364 98.7713C190.93 98.5914 191.526 98.5014 192.152 98.5014C192.566 98.5014 193.004 98.5509 193.467 98.6499C193.935 98.7443 194.372 98.9197 194.776 99.1761C195.186 99.4325 195.521 99.7991 195.782 100.276C196.043 100.748 196.173 101.362 196.173 102.118V109H194.203V107.583H194.122C193.991 107.844 193.796 108.1 193.535 108.352C193.274 108.604 192.939 108.813 192.53 108.98C192.12 109.146 191.63 109.229 191.059 109.229ZM191.497 107.61C192.055 107.61 192.532 107.5 192.928 107.279C193.328 107.059 193.632 106.771 193.839 106.416C194.05 106.056 194.156 105.671 194.156 105.262V103.926C194.084 103.998 193.944 104.066 193.737 104.129C193.535 104.187 193.303 104.239 193.042 104.284C192.781 104.324 192.527 104.362 192.28 104.398C192.033 104.43 191.826 104.457 191.659 104.479C191.268 104.529 190.91 104.612 190.586 104.729C190.267 104.846 190.011 105.015 189.817 105.235C189.628 105.451 189.534 105.739 189.534 106.099C189.534 106.598 189.718 106.976 190.087 107.232C190.456 107.484 190.926 107.61 191.497 107.61ZM198.86 109V98.6364H200.81V100.283H200.918C201.107 99.7249 201.44 99.2863 201.917 98.967C202.398 98.6431 202.942 98.4812 203.549 98.4812C203.675 98.4812 203.824 98.4857 203.995 98.4947C204.17 98.5037 204.307 98.5149 204.406 98.5284V100.458C204.325 100.436 204.181 100.411 203.974 100.384C203.768 100.352 203.561 100.337 203.354 100.337C202.877 100.337 202.452 100.438 202.078 100.64C201.71 100.838 201.417 101.115 201.201 101.47C200.985 101.821 200.877 102.221 200.877 102.671V109H198.86ZM209.661 109.202C208.824 109.202 208.077 108.989 207.421 108.561C206.768 108.13 206.256 107.516 205.882 106.719C205.513 105.919 205.329 104.958 205.329 103.838C205.329 102.718 205.516 101.76 205.889 100.964C206.267 100.168 206.784 99.5585 207.441 99.1357C208.098 98.7128 208.842 98.5014 209.674 98.5014C210.317 98.5014 210.835 98.6094 211.226 98.8253C211.622 99.0367 211.928 99.2841 212.144 99.5675C212.364 99.8509 212.535 100.1 212.656 100.316H212.778V95.1818H214.795V109H212.825V107.387H212.656C212.535 107.608 212.359 107.86 212.13 108.143C211.905 108.426 211.595 108.674 211.199 108.885C210.803 109.097 210.29 109.202 209.661 109.202ZM210.106 107.482C210.686 107.482 211.176 107.329 211.577 107.023C211.982 106.713 212.287 106.283 212.494 105.734C212.706 105.186 212.812 104.547 212.812 103.818C212.812 103.098 212.708 102.469 212.501 101.929C212.294 101.389 211.991 100.969 211.59 100.667C211.19 100.366 210.695 100.215 210.106 100.215C209.499 100.215 208.993 100.373 208.588 100.688C208.183 101.002 207.877 101.432 207.67 101.976C207.468 102.52 207.367 103.134 207.367 103.818C207.367 104.511 207.47 105.134 207.677 105.687C207.884 106.24 208.19 106.679 208.595 107.003C209.004 107.322 209.508 107.482 210.106 107.482ZM234.342 99.6754H232.237C232.156 99.2256 232.005 98.8298 231.785 98.4879C231.564 98.1461 231.294 97.8559 230.975 97.6175C230.656 97.3791 230.298 97.1992 229.902 97.0778C229.511 96.9563 229.095 96.8956 228.654 96.8956C227.858 96.8956 227.145 97.0958 226.515 97.4961C225.89 97.8964 225.395 98.4834 225.031 99.2571C224.671 100.031 224.491 100.975 224.491 102.091C224.491 103.215 224.671 104.165 225.031 104.938C225.395 105.712 225.892 106.297 226.522 106.692C227.151 107.088 227.86 107.286 228.647 107.286C229.083 107.286 229.497 107.228 229.889 107.111C230.284 106.989 230.642 106.812 230.961 106.578C231.281 106.344 231.551 106.058 231.771 105.721C231.996 105.379 232.151 104.988 232.237 104.547L234.342 104.554C234.229 105.233 234.011 105.858 233.687 106.429C233.368 106.996 232.956 107.486 232.453 107.9C231.953 108.31 231.382 108.627 230.739 108.852C230.095 109.076 229.394 109.189 228.634 109.189C227.437 109.189 226.371 108.906 225.435 108.339C224.5 107.768 223.762 106.951 223.222 105.89C222.687 104.828 222.419 103.562 222.419 102.091C222.419 100.616 222.689 99.3493 223.229 98.2923C223.769 97.2307 224.507 96.4165 225.442 95.8498C226.378 95.2785 227.442 94.9929 228.634 94.9929C229.367 94.9929 230.051 95.0986 230.685 95.31C231.323 95.5169 231.897 95.8228 232.405 96.2276C232.914 96.628 233.334 97.1183 233.667 97.6985C234 98.2743 234.225 98.9332 234.342 99.6754ZM238.044 95.1818L241.89 106.436H242.045L245.891 95.1818H248.145L243.172 109H240.763L235.791 95.1818H238.044Z" fill="white"/>
<circle cx="36" cy="103" r="11.5" stroke="#F1F2F9"/>
<path d="M29.25 104.05L33.3145 108.25L42.75 98.5" stroke="#F1F2F9" stroke-width="2" stroke-linecap="round"/>
<g filter="url(#filter1_d_1759_4)">
<circle cx="278.5" cy="55.5" r="26.5" fill="#C940CB"/>
<circle cx="278.5" cy="55.5" r="26" stroke="url(#paint2_linear_1759_4)"/>
</g>
<path d="M282.225 42L295.5 55.2748L282.225 68.5497" stroke="white" stroke-width="2" stroke-linecap="round"/>
<path d="M294.856 55.4037L261 55.323" stroke="white" stroke-width="2" stroke-linecap="round"/>
<defs>
<filter id="filter0_d_1759_4" x="0" y="0" width="294" height="258" filterUnits="userSpaceOnUse" color-interpolation-filters="sRGB">
<feFlood flood-opacity="0" result="BackgroundImageFix"/>
<feColorMatrix in="SourceAlpha" type="matrix" values="0 0 0 0 0 0 0 0 0 0 0 0 0 0 0 0 0 0 127 0" result="hardAlpha"/>
<feOffset dx="4" dy="4"/>
<feGaussianBlur stdDeviation="3"/>
<feComposite in2="hardAlpha" operator="out"/>
<feColorMatrix type="matrix" values="0 0 0 0 0 0 0 0 0 0 0 0 0 0 0 0 0 0 0.25 0"/>
<feBlend mode="normal" in2="BackgroundImageFix" result="effect1_dropShadow_1759_4"/>
<feBlend mode="normal" in="SourceGraphic" in2="effect1_dropShadow_1759_4" result="shape"/>
</filter>
<filter id="filter1_d_1759_4" x="248" y="29" width="61" height="61" filterUnits="userSpaceOnUse" color-interpolation-filters="sRGB">
<feFlood flood-opacity="0" result="BackgroundImageFix"/>
<feColorMatrix in="SourceAlpha" type="matrix" values="0 0 0 0 0 0 0 0 0 0 0 0 0 0 0 0 0 0 127 0" result="hardAlpha"/>
<feOffset dy="4"/>
<feGaussianBlur stdDeviation="2"/>
<feComposite in2="hardAlpha" operator="out"/>
<feColorMatrix type="matrix" values="0 0 0 0 0 0 0 0 0 0 0 0 0 0 0 0 0 0 0.25 0"/>
<feBlend mode="normal" in2="BackgroundImageFix" result="effect1_dropShadow_1759_4"/>
<feBlend mode="normal" in="SourceGraphic" in2="effect1_dropShadow_1759_4" result="shape"/>
</filter>
<linearGradient id="paint0_linear_1759_4" x1="143" y1="2" x2="143" y2="248" gradientUnits="userSpaceOnUse">
<stop/>
<stop offset="1" stop-color="#C940CC"/>
</linearGradient>
<linearGradient id="paint1_linear_1759_4" x1="143" y1="2" x2="143" y2="248" gradientUnits="userSpaceOnUse">
<stop stop-color="#C940CB"/>
<stop offset="1" stop-color="#060206"/>
</linearGradient>
<linearGradient id="paint2_linear_1759_4" x1="278.5" y1="29" x2="278.5" y2="82" gradientUnits="userSpaceOnUse">
<stop stop-color="#C03EC3"/>
<stop offset="1" stop-color="#070307"/>
</linearGradient>
</defs>
</svg>
